<mxfile host="65bd71144e">
    <diagram id="ROOptGiBzzbwXJWLf5Wy" name="第 1 页">
        <mxGraphModel dx="371" dy="782" grid="0" gridSize="10" guides="1" tooltips="1" connect="1" arrows="1" fold="1" page="1" pageScale="1" pageWidth="827" pageHeight="1169" background="#ffffff" math="0" shadow="0">
            <root>
                <mxCell id="0"/>
                <mxCell id="1" parent="0"/>
                <mxCell id="2" value="&lt;font color=&quot;#000000&quot;&gt;gen_plcp_data&lt;/font&gt;" style="rounded=0;whiteSpace=wrap;html=1;fillColor=none;strokeColor=#000000;" parent="1" vertex="1">
                    <mxGeometry x="287" y="172" width="136" height="199" as="geometry"/>
                </mxCell>
                <mxCell id="5" value="" style="group" parent="1" vertex="1" connectable="0">
                    <mxGeometry x="185" y="162" width="101" height="30" as="geometry"/>
                </mxCell>
                <mxCell id="3" value="" style="endArrow=classic;html=1;fontColor=#000000;strokeColor=#000000;" parent="5" edge="1">
                    <mxGeometry width="50" height="50" relative="1" as="geometry">
                        <mxPoint y="28" as="sourcePoint"/>
                        <mxPoint x="101" y="28" as="targetPoint"/>
                    </mxGeometry>
                </mxCell>
                <mxCell id="4" value="clk_user" style="text;html=1;strokeColor=none;fillColor=none;align=center;verticalAlign=middle;whiteSpace=wrap;rounded=0;fontColor=#000000;" parent="5" vertex="1">
                    <mxGeometry x="17" width="60" height="30" as="geometry"/>
                </mxCell>
                <mxCell id="6" value="" style="group" parent="1" vertex="1" connectable="0">
                    <mxGeometry x="185" y="186" width="101" height="30" as="geometry"/>
                </mxCell>
                <mxCell id="7" value="" style="endArrow=classic;html=1;fontColor=#000000;strokeColor=#000000;" parent="6" edge="1">
                    <mxGeometry width="50" height="50" relative="1" as="geometry">
                        <mxPoint y="28" as="sourcePoint"/>
                        <mxPoint x="101" y="28" as="targetPoint"/>
                    </mxGeometry>
                </mxCell>
                <mxCell id="8" value="reset" style="text;html=1;strokeColor=none;fillColor=none;align=center;verticalAlign=middle;whiteSpace=wrap;rounded=0;fontColor=#000000;" parent="6" vertex="1">
                    <mxGeometry x="17" width="60" height="30" as="geometry"/>
                </mxCell>
                <mxCell id="9" value="" style="group" parent="1" vertex="1" connectable="0">
                    <mxGeometry x="185" y="221" width="101" height="30" as="geometry"/>
                </mxCell>
                <mxCell id="10" value="" style="endArrow=classic;html=1;fontColor=#000000;strokeColor=#000000;strokeWidth=2;" parent="9" edge="1">
                    <mxGeometry width="50" height="50" relative="1" as="geometry">
                        <mxPoint y="28" as="sourcePoint"/>
                        <mxPoint x="101" y="28" as="targetPoint"/>
                    </mxGeometry>
                </mxCell>
                <mxCell id="11" value="tx_rate" style="text;html=1;strokeColor=none;fillColor=none;align=center;verticalAlign=middle;whiteSpace=wrap;rounded=0;fontColor=#000000;" parent="9" vertex="1">
                    <mxGeometry x="17" width="60" height="30" as="geometry"/>
                </mxCell>
                <mxCell id="13" value="" style="group" parent="1" vertex="1" connectable="0">
                    <mxGeometry x="185" y="251" width="101" height="30" as="geometry"/>
                </mxCell>
                <mxCell id="14" value="" style="endArrow=classic;html=1;fontColor=#000000;strokeColor=#000000;strokeWidth=2;" parent="13" edge="1">
                    <mxGeometry width="50" height="50" relative="1" as="geometry">
                        <mxPoint y="28" as="sourcePoint"/>
                        <mxPoint x="101" y="28" as="targetPoint"/>
                    </mxGeometry>
                </mxCell>
                <mxCell id="15" value="packetlength" style="text;html=1;strokeColor=none;fillColor=none;align=center;verticalAlign=middle;whiteSpace=wrap;rounded=0;fontColor=#000000;" parent="13" vertex="1">
                    <mxGeometry x="17" width="60" height="30" as="geometry"/>
                </mxCell>
                <mxCell id="16" value="" style="group" parent="1" vertex="1" connectable="0">
                    <mxGeometry x="185" y="284" width="101" height="30" as="geometry"/>
                </mxCell>
                <mxCell id="17" value="" style="endArrow=classic;html=1;fontColor=#000000;strokeColor=#000000;strokeWidth=2;" parent="16" edge="1">
                    <mxGeometry width="50" height="50" relative="1" as="geometry">
                        <mxPoint y="28" as="sourcePoint"/>
                        <mxPoint x="101" y="28" as="targetPoint"/>
                    </mxGeometry>
                </mxCell>
                <mxCell id="18" value="send_data" style="text;html=1;strokeColor=none;fillColor=none;align=center;verticalAlign=middle;whiteSpace=wrap;rounded=0;fontColor=#000000;" parent="16" vertex="1">
                    <mxGeometry x="17" width="60" height="30" as="geometry"/>
                </mxCell>
                <mxCell id="19" value="" style="group" parent="1" vertex="1" connectable="0">
                    <mxGeometry x="185" y="311" width="101" height="30" as="geometry"/>
                </mxCell>
                <mxCell id="20" value="" style="endArrow=classic;html=1;fontColor=#000000;strokeColor=#000000;" parent="19" edge="1">
                    <mxGeometry width="50" height="50" relative="1" as="geometry">
                        <mxPoint y="28" as="sourcePoint"/>
                        <mxPoint x="101" y="28" as="targetPoint"/>
                    </mxGeometry>
                </mxCell>
                <mxCell id="21" value="send_data_valid" style="text;html=1;strokeColor=none;fillColor=none;align=center;verticalAlign=middle;whiteSpace=wrap;rounded=0;fontColor=#000000;" parent="19" vertex="1">
                    <mxGeometry x="17" width="60" height="30" as="geometry"/>
                </mxCell>
                <mxCell id="25" value="" style="group" parent="1" vertex="1" connectable="0">
                    <mxGeometry x="423" y="231" width="101" height="30" as="geometry"/>
                </mxCell>
                <mxCell id="26" value="" style="endArrow=classic;html=1;fontColor=#000000;strokeColor=#000000;" parent="25" edge="1">
                    <mxGeometry width="50" height="50" relative="1" as="geometry">
                        <mxPoint y="28" as="sourcePoint"/>
                        <mxPoint x="101" y="28" as="targetPoint"/>
                    </mxGeometry>
                </mxCell>
                <mxCell id="27" value="data_bit" style="text;html=1;strokeColor=none;fillColor=none;align=center;verticalAlign=middle;whiteSpace=wrap;rounded=0;fontColor=#000000;" parent="25" vertex="1">
                    <mxGeometry x="17" width="60" height="30" as="geometry"/>
                </mxCell>
                <mxCell id="22" value="" style="group" parent="25" vertex="1" connectable="0">
                    <mxGeometry y="-30" width="101" height="30" as="geometry"/>
                </mxCell>
                <mxCell id="23" value="" style="endArrow=classic;html=1;fontColor=#000000;strokeColor=#000000;" parent="22" edge="1">
                    <mxGeometry width="50" height="50" relative="1" as="geometry">
                        <mxPoint x="101" y="28" as="sourcePoint"/>
                        <mxPoint y="28" as="targetPoint"/>
                    </mxGeometry>
                </mxCell>
                <mxCell id="24" value="clk_modulation" style="text;html=1;strokeColor=none;fillColor=none;align=center;verticalAlign=middle;whiteSpace=wrap;rounded=0;fontColor=#000000;" parent="22" vertex="1">
                    <mxGeometry x="17" width="60" height="30" as="geometry"/>
                </mxCell>
                <mxCell id="28" value="" style="group" parent="1" vertex="1" connectable="0">
                    <mxGeometry x="423" y="270" width="101" height="30" as="geometry"/>
                </mxCell>
                <mxCell id="29" value="" style="endArrow=classic;html=1;fontColor=#000000;strokeColor=#000000;" parent="28" edge="1">
                    <mxGeometry width="50" height="50" relative="1" as="geometry">
                        <mxPoint y="28" as="sourcePoint"/>
                        <mxPoint x="101" y="28" as="targetPoint"/>
                    </mxGeometry>
                </mxCell>
                <mxCell id="30" value="data_bit_valid" style="text;html=1;strokeColor=none;fillColor=none;align=center;verticalAlign=middle;whiteSpace=wrap;rounded=0;fontColor=#000000;" parent="28" vertex="1">
                    <mxGeometry x="17" width="60" height="30" as="geometry"/>
                </mxCell>
                <mxCell id="31" value="&lt;font color=&quot;#000000&quot;&gt;gen_plcp_data&lt;/font&gt;" style="rounded=0;whiteSpace=wrap;html=1;fillColor=none;strokeColor=#000000;" vertex="1" parent="1">
                    <mxGeometry x="304" y="451" width="136" height="199" as="geometry"/>
                </mxCell>
                <mxCell id="32" value="" style="group" vertex="1" connectable="0" parent="1">
                    <mxGeometry x="202" y="466" width="101" height="30" as="geometry"/>
                </mxCell>
                <mxCell id="33" value="" style="endArrow=classic;html=1;fontColor=#000000;strokeColor=#000000;" edge="1" parent="32">
                    <mxGeometry width="50" height="50" relative="1" as="geometry">
                        <mxPoint y="28" as="sourcePoint"/>
                        <mxPoint x="101" y="28" as="targetPoint"/>
                    </mxGeometry>
                </mxCell>
                <mxCell id="34" value="clk_modulation" style="text;html=1;strokeColor=none;fillColor=none;align=center;verticalAlign=middle;whiteSpace=wrap;rounded=0;fontColor=#000000;" vertex="1" parent="32">
                    <mxGeometry x="17" width="60" height="30" as="geometry"/>
                </mxCell>
                <mxCell id="35" value="" style="group" vertex="1" connectable="0" parent="1">
                    <mxGeometry x="202" y="490" width="101" height="30" as="geometry"/>
                </mxCell>
                <mxCell id="36" value="" style="endArrow=classic;html=1;fontColor=#000000;strokeColor=#000000;" edge="1" parent="35">
                    <mxGeometry width="50" height="50" relative="1" as="geometry">
                        <mxPoint y="28" as="sourcePoint"/>
                        <mxPoint x="101" y="28" as="targetPoint"/>
                    </mxGeometry>
                </mxCell>
                <mxCell id="37" value="reset" style="text;html=1;strokeColor=none;fillColor=none;align=center;verticalAlign=middle;whiteSpace=wrap;rounded=0;fontColor=#000000;" vertex="1" parent="35">
                    <mxGeometry x="17" width="60" height="30" as="geometry"/>
                </mxCell>
                <mxCell id="41" value="" style="group" vertex="1" connectable="0" parent="1">
                    <mxGeometry x="202" y="530" width="101" height="30" as="geometry"/>
                </mxCell>
                <mxCell id="42" value="" style="endArrow=classic;html=1;fontColor=#000000;strokeColor=#000000;strokeWidth=2;" edge="1" parent="41">
                    <mxGeometry width="50" height="50" relative="1" as="geometry">
                        <mxPoint y="28" as="sourcePoint"/>
                        <mxPoint x="101" y="28" as="targetPoint"/>
                    </mxGeometry>
                </mxCell>
                <mxCell id="43" value="packetlength" style="text;html=1;strokeColor=none;fillColor=none;align=center;verticalAlign=middle;whiteSpace=wrap;rounded=0;fontColor=#000000;" vertex="1" parent="41">
                    <mxGeometry x="17" width="60" height="30" as="geometry"/>
                </mxCell>
                <mxCell id="44" value="" style="group" vertex="1" connectable="0" parent="1">
                    <mxGeometry x="202" y="563" width="101" height="30" as="geometry"/>
                </mxCell>
                <mxCell id="45" value="" style="endArrow=classic;html=1;fontColor=#000000;strokeColor=#000000;strokeWidth=1;" edge="1" parent="44">
                    <mxGeometry width="50" height="50" relative="1" as="geometry">
                        <mxPoint y="28" as="sourcePoint"/>
                        <mxPoint x="101" y="28" as="targetPoint"/>
                    </mxGeometry>
                </mxCell>
                <mxCell id="46" value="data_bit_valid" style="text;html=1;strokeColor=none;fillColor=none;align=center;verticalAlign=middle;whiteSpace=wrap;rounded=0;fontColor=#000000;" vertex="1" parent="44">
                    <mxGeometry x="17" width="60" height="30" as="geometry"/>
                </mxCell>
                <mxCell id="47" value="" style="group" vertex="1" connectable="0" parent="1">
                    <mxGeometry x="202" y="588" width="100" height="32" as="geometry"/>
                </mxCell>
                <mxCell id="48" value="" style="endArrow=classic;html=1;fontColor=#000000;strokeColor=#000000;" edge="1" parent="47">
                    <mxGeometry width="50" height="50" relative="1" as="geometry">
                        <mxPoint y="29.866666666666667" as="sourcePoint"/>
                        <mxPoint x="100" y="29.866666666666667" as="targetPoint"/>
                    </mxGeometry>
                </mxCell>
                <mxCell id="49" value="data_bit" style="text;html=1;strokeColor=none;fillColor=none;align=center;verticalAlign=middle;whiteSpace=wrap;rounded=0;fontColor=#000000;" vertex="1" parent="47">
                    <mxGeometry x="16.831683168316832" width="59.4059405940594" height="32" as="geometry"/>
                </mxCell>
                <mxCell id="50" value="" style="group" vertex="1" connectable="0" parent="1">
                    <mxGeometry x="440" y="510" width="101" height="30" as="geometry"/>
                </mxCell>
                <mxCell id="51" value="" style="endArrow=classic;html=1;fontColor=#000000;strokeColor=#000000;" edge="1" parent="50">
                    <mxGeometry width="50" height="50" relative="1" as="geometry">
                        <mxPoint y="28" as="sourcePoint"/>
                        <mxPoint x="101" y="28" as="targetPoint"/>
                    </mxGeometry>
                </mxCell>
                <mxCell id="52" value="scramble_bit" style="text;html=1;strokeColor=none;fillColor=none;align=center;verticalAlign=middle;whiteSpace=wrap;rounded=0;fontColor=#000000;" vertex="1" parent="50">
                    <mxGeometry x="17" width="60" height="30" as="geometry"/>
                </mxCell>
                <mxCell id="56" value="" style="group" vertex="1" connectable="0" parent="1">
                    <mxGeometry x="440" y="549" width="129" height="30" as="geometry"/>
                </mxCell>
                <mxCell id="57" value="" style="endArrow=classic;html=1;fontColor=#000000;strokeColor=#000000;" edge="1" parent="56">
                    <mxGeometry width="50" height="50" relative="1" as="geometry">
                        <mxPoint y="28" as="sourcePoint"/>
                        <mxPoint x="129" y="28" as="targetPoint"/>
                    </mxGeometry>
                </mxCell>
                <mxCell id="58" value="scramble_bit_valid" style="text;html=1;strokeColor=none;fillColor=none;align=center;verticalAlign=middle;whiteSpace=wrap;rounded=0;fontColor=#000000;" vertex="1" parent="56">
                    <mxGeometry x="21.712871287128714" width="76.63366336633663" height="30" as="geometry"/>
                </mxCell>
            </root>
        </mxGraphModel>
    </diagram>
</mxfile>